HIERARCHY
ROOT Hips
{
	OFFSET -0.001795 -0.223333 0.028219
	CHANNELS 6 Xposition Yposition Zposition Zrotation Yrotation Xrotation 
	JOINT LeftUpLeg
	{
		OFFSET 0.069520 -0.091406 -0.006815
		CHANNELS 3 Zrotation Yrotation Xrotation
		JOINT LeftLeg
		{
			OFFSET 0.034277 -0.375199 -0.004496
			CHANNELS 3 Zrotation Yrotation Xrotation
			JOINT LeftFoot
			{
				OFFSET -0.013596 -0.397961 -0.043693
				CHANNELS 3 Zrotation Yrotation Xrotation
				JOINT LeftToe
				{
					OFFSET 0.026358 -0.055791 0.119288
					CHANNELS 3 Zrotation Yrotation Xrotation
					End Site
					{
						OFFSET 0.000000 0.000000 0.000000
					}
				}
			}
		}
	}
	JOINT RightUpLeg
	{
		OFFSET -0.067670 -0.090522 -0.004320
		CHANNELS 3 Zrotation Yrotation Xrotation
		JOINT RightLeg
		{
			OFFSET -0.038290 -0.382569 -0.008850
			CHANNELS 3 Zrotation Yrotation Xrotation
			JOINT RightFoot
			{
				OFFSET 0.015774 -0.398415 -0.042312
				CHANNELS 3 Zrotation Yrotation Xrotation
				JOINT RightToe
				{
					OFFSET -0.025372 -0.048144 0.123348
					CHANNELS 3 Zrotation Yrotation Xrotation
					End Site
					{
						OFFSET 0.000000 0.000000 0.000000
					}
				}
			}
		}
	}
	JOINT Spine
	{
		OFFSET -0.002533 0.108963 -0.026696
		CHANNELS 3 Zrotation Yrotation Xrotation
		JOINT Spine1
		{
			OFFSET 0.005487 0.135180 0.001092
			CHANNELS 3 Zrotation Yrotation Xrotation
			JOINT Spine2
			{
				OFFSET 0.001457 0.052922 0.025425
				CHANNELS 3 Zrotation Yrotation Xrotation
				JOINT Neck
				{
					OFFSET -0.002778 0.213870 -0.042857
					CHANNELS 3 Zrotation Yrotation Xrotation
					JOINT Head
					{
						OFFSET 0.005152 0.064970 0.051349
						CHANNELS 3 Zrotation Yrotation Xrotation
						End Site
						{
							OFFSET 0.000000 0.000000 0.000000
						}
					}
				}
				JOINT LeftShoulder
				{
					OFFSET 0.078845 0.121749 -0.034090
					CHANNELS 3 Zrotation Yrotation Xrotation
					JOINT LeftArm
					{
						OFFSET 0.090977 0.030469 -0.008868
						CHANNELS 3 Zrotation Yrotation Xrotation
						JOINT LeftForeArm
						{
							OFFSET 0.259612 -0.012772 -0.027456
							CHANNELS 3 Zrotation Yrotation Xrotation
							JOINT LeftHand
							{
								OFFSET 0.249234 0.008986 -0.001171
								CHANNELS 3 Zrotation Yrotation Xrotation
								End Site
								{
									OFFSET 0.000000 0.000000 0.000000
								}
							}
						}
					}
				}
				JOINT RightShoulder
				{
					OFFSET -0.081759 0.118833 -0.038615
					CHANNELS 3 Zrotation Yrotation Xrotation
					JOINT RightArm
					{
						OFFSET -0.096012 0.032551 -0.009143
						CHANNELS 3 Zrotation Yrotation Xrotation
						JOINT RightForeArm
						{
							OFFSET -0.253742 -0.013329 -0.021401
							CHANNELS 3 Zrotation Yrotation Xrotation
							JOINT RightHand
							{
								OFFSET -0.255298 0.007772 -0.005559
								CHANNELS 3 Zrotation Yrotation Xrotation
								End Site
								{
									OFFSET 0.000000 0.000000 0.000000
								}
							}
						}
					}
				}
			}
		}
	}
}
MOTION
Frames: 13
Frame Time: 0.050000
0.000000 0.954616 0.000000 -0.195873 -0.779726 4.439927 2.195589 0.034294 1.122994 -2.258218 0.360548 -7.735812 3.592550 10.397454 12.218449 0.000000 0.000000 0.000000 -2.897485 0.372820 -3.626563 0.786911 -0.099681 -0.581008 -3.573313 -10.903001 7.524442 0.000000 0.000000 0.000000 5.713730 -0.035026 -1.049810 -5.011992 1.840719 -21.292938 -2.174474 5.541949 25.610811 8.026298 -2.415761 -24.387779 0.000000 0.000000 0.000000 -3.078113 -6.605013 2.096688 -13.968073 -3.285732 -1.820233 16.575233 -1.079924 -0.187621 0.000000 0.000000 0.000000 9.921135 -4.274389 -1.860310 17.016560 5.472147 -2.112741 -14.134377 7.136180 -0.218730 0.000000 0.000000 0.000000 
0.000151 0.953831 0.000971 -0.368598 -0.874536 4.766444 2.381270 0.052775 1.484167 -2.011575 0.372007 -8.940263 3.224558 9.787039 12.173517 0.000000 0.000000 0.000000 -2.702245 0.355109 -3.370452 0.421420 -0.070589 -0.765658 -4.335738 -12.478833 7.621346 0.000000 0.000000 0.000000 6.286597 -0.047514 -1.071247 -5.821229 2.035304 -21.748433 -2.177419 6.172617 25.150611 8.169661 -2.324205 -24.865768 0.000000 0.000000 0.000000 -1.909074 -7.316891 2.371583 -13.727816 -3.721597 -1.738112 15.250945 0.756333 0.007029 0.000000 0.000000 0.000000 10.517740 -6.000182 -2.649185 16.660794 4.584516 -2.154603 -12.969853 8.663048 -0.292584 0.000000 0.000000 0.000000 
0.000115 0.953095 0.001623 -0.369583 -1.175719 4.662794 2.699557 0.051091 1.582959 -2.407776 0.377234 -8.221506 3.568943 10.175575 11.467154 0.000000 0.000000 0.000000 -2.894645 0.345235 -3.209989 0.814591 -0.111115 -0.874335 -3.330821 -10.454359 7.617690 0.000000 0.000000 0.000000 6.519982 -0.014977 -1.399257 -6.125716 2.077138 -22.821013 -1.979779 7.185330 27.039117 9.100086 -2.680709 -25.585912 0.000000 0.000000 0.000000 -1.063742 -8.146022 2.675889 -13.334585 -3.948325 -1.709543 15.447995 2.457678 0.154379 0.000000 0.000000 0.000000 10.921684 -5.802875 -2.443413 16.211421 4.404770 -2.225378 -13.547874 6.317788 -0.106056 0.000000 0.000000 0.000000 
0.000009 0.952994 0.002110 -0.344854 -0.979616 4.483345 2.872335 0.066572 1.900943 -2.940743 0.397344 -8.376847 3.516774 9.996843 10.899124 0.000000 0.000000 0.000000 -2.924352 0.322851 -2.934380 1.014716 -0.134180 -0.999338 -3.660304 -11.163487 7.863568 0.000000 0.000000 0.000000 6.361461 0.054607 -2.062907 -6.171384 2.117633 -22.103813 -2.042017 6.988049 27.134045 8.582722 -2.326146 -25.952908 0.000000 0.000000 0.000000 -1.091045 -8.687362 2.862772 -13.509666 -3.303949 -1.764570 17.054366 2.984107 0.225603 0.000000 0.000000 0.000000 11.046454 -5.481927 -2.301009 15.527904 3.720231 -2.186619 -13.275802 5.603313 -0.049359 0.000000 0.000000 0.000000 
-0.000109 0.953488 0.002399 -0.485884 -0.958052 4.261480 3.081547 0.086092 2.297225 -3.042400 0.401785 -8.475937 3.277660 9.618423 10.955354 0.000000 0.000000 0.000000 -2.754042 0.299433 -2.668223 0.955759 -0.135360 -1.208409 -3.589203 -11.037561 7.956532 0.000000 0.000000 0.000000 6.002002 0.053833 -1.993809 -5.568263 1.972177 -21.820203 -2.254802 7.128970 26.454553 9.142958 -2.801639 -24.789748 0.000000 0.000000 0.000000 -1.449508 -8.961361 2.933726 -13.206960 -3.456470 -1.693040 17.649409 3.265036 0.257609 0.000000 0.000000 0.000000 11.381371 -5.247467 -2.185863 15.526706 3.375874 -2.195839 -12.779338 5.361287 -0.021549 0.000000 0.000000 0.000000 
-0.000152 0.953899 0.002430 -0.487246 -1.095796 3.935833 2.905713 0.107745 2.466331 -2.839253 0.390858 -7.972206 3.330167 9.598949 10.480632 0.000000 0.000000 0.000000 -3.180324 0.296536 -2.575772 1.380089 -0.165710 -0.907622 -3.647885 -11.101215 7.660214 0.000000 0.000000 0.000000 5.895670 0.064033 -2.029277 -5.791434 2.046614 -21.199939 -2.143514 6.709991 26.398232 8.888386 -2.635085 -25.360377 0.000000 0.000000 0.000000 -1.464537 -9.008368 2.969689 -13.691190 -3.314058 -1.774606 18.701931 3.373227 0.304398 0.000000 0.000000 0.000000 11.117485 -4.843626 -2.046284 16.436683 3.640478 -2.259425 -13.385660 5.322697 -0.030251 0.000000 0.000000 0.000000 
-0.000192 0.953921 0.002275 -0.513125 -1.257090 3.756902 3.144181 0.112017 2.639497 -2.998780 0.399111 -7.964569 3.290613 9.533658 10.545290 0.000000 0.000000 0.000000 -3.197692 0.294778 -2.554844 1.471661 -0.170365 -0.774435 -3.554631 -10.894095 7.530865 0.000000 0.000000 0.000000 5.763708 0.042461 -1.748014 -5.679472 2.026422 -20.785091 -2.350470 6.622008 25.984006 9.055281 -2.806353 -25.002416 0.000000 0.000000 0.000000 -1.963499 -8.947323 2.938925 -13.926783 -3.204159 -1.800628 19.550418 3.102494 0.288090 0.000000 0.000000 0.000000 11.327127 -4.774052 -2.050967 16.887163 3.555758 -2.294181 -13.362354 5.908856 -0.081874 0.000000 0.000000 0.000000 
-0.000195 0.953966 0.002106 -0.593096 -1.589922 3.830655 3.140624 0.096510 2.368846 -2.959488 0.395141 -7.439072 3.332201 9.506686 10.222730 0.000000 0.000000 0.000000 -3.204477 0.313887 -2.788694 1.724334 -0.185687 -0.474704 -3.511136 -10.788776 7.350056 0.000000 0.000000 0.000000 5.922497 0.059548 -1.940472 -5.980615 2.111007 -20.495022 -2.275862 6.528693 26.195790 9.351695 -3.062420 -24.891728 0.000000 0.000000 0.000000 -3.243448 -8.963260 2.932570 -14.157479 -2.861207 -1.865589 20.854652 2.695530 0.260291 0.000000 0.000000 0.000000 12.164121 -4.580005 -2.020942 17.807754 4.065077 -2.366766 -14.354034 5.969428 -0.107342 0.000000 0.000000 0.000000 
-0.000181 0.953755 0.001844 -0.582747 -1.968739 3.778021 3.245722 0.100902 2.442904 -3.080827 0.402334 -7.201583 3.234709 9.230771 9.828156 0.000000 0.000000 0.000000 -3.345174 0.328496 -2.947022 1.928050 -0.203306 -0.458181 -3.380985 -10.563299 7.414470 0.000000 0.000000 0.000000 5.799965 0.058607 -1.902389 -6.073516 2.134117 -20.348619 -2.156231 6.649732 26.208220 9.484674 -3.188187 -24.708216 0.000000 0.000000 0.000000 -4.540902 -8.998973 2.922483 -14.748632 -2.606483 -1.958087 22.268489 1.929624 0.160606 0.000000 0.000000 0.000000 13.012186 -4.531614 -2.044519 19.247273 4.303629 -2.511294 -15.523142 6.899651 -0.217497 0.000000 0.000000 0.000000 
-0.000148 0.953786 0.001468 -0.594578 -2.107089 3.734826 3.486438 0.090539 2.395360 -3.349364 0.416519 -7.060974 3.338382 9.387914 9.789588 0.000000 0.000000 0.000000 -3.367053 0.345041 -3.173175 1.860734 -0.194138 -0.365467 -3.250669 -10.339864 7.542742 0.000000 0.000000 0.000000 5.667150 0.050614 -1.796394 -6.212166 2.173297 -20.245357 -2.173059 6.436406 26.342539 9.761818 -3.413318 -24.673221 0.000000 0.000000 0.000000 -5.844349 -8.497224 2.720649 -15.912447 -2.645466 -2.117528 23.239442 0.564010 -0.043561 0.000000 0.000000 0.000000 14.394741 -4.458369 -2.109205 20.520116 4.902940 -2.593357 -16.343261 7.314706 -0.284352 0.000000 0.000000 0.000000 
-0.000025 0.953436 0.001034 -0.672452 -2.452422 3.710781 3.700959 0.076923 2.247940 -3.431076 0.420830 -6.547640 3.326991 9.244041 9.310546 0.000000 0.000000 0.000000 -3.442206 0.356570 -3.301943 2.116812 -0.218047 -0.405022 -3.119895 -10.141482 7.706598 0.000000 0.000000 0.000000 5.697980 0.054436 -1.819843 -6.342523 2.204171 -20.163174 -2.096897 6.535066 26.415134 9.705151 -3.360695 -24.867082 0.000000 0.000000 0.000000 -7.354715 -8.257697 2.591807 -17.227364 -2.431922 -2.310355 23.695326 -1.122406 -0.321281 0.000000 0.000000 0.000000 15.553385 -4.275126 -2.083715 22.541938 5.487895 -2.741397 -17.103910 8.213164 -0.397384 0.000000 0.000000 0.000000 
0.000240 0.953118 0.000636 -0.739111 -2.898413 3.891256 3.819146 0.070542 2.169803 -3.527154 0.428736 -6.294148 3.468122 9.403624 9.080356 0.000000 0.000000 0.000000 -3.421891 0.395180 -3.798607 2.147420 -0.212916 -0.139037 -2.884009 -9.751723 7.903238 0.000000 0.000000 0.000000 5.758365 0.085252 -2.173642 -6.413908 2.224169 -19.902361 -1.990701 6.550323 26.463955 9.749374 -3.479297 -24.565092 0.000000 0.000000 0.000000 -8.822796 -7.864747 2.412844 -19.217925 -1.970979 -2.632576 23.624655 -3.242555 -0.656579 0.000000 0.000000 0.000000 17.065096 -3.865444 -1.989889 24.354874 5.912013 -2.860585 -17.878958 9.500851 -0.575587 0.000000 0.000000 0.000000 
0.000653 0.952662 0.000366 -0.843691 -3.216711 3.965189 3.881376 0.071229 2.176656 -3.631836 0.437946 -6.272515 3.553523 9.492846 8.903926 0.000000 0.000000 0.000000 -3.427080 0.408788 -3.957189 2.066082 -0.206269 -0.262407 -2.706218 -9.495537 8.179863 0.000000 0.000000 0.000000 5.791233 0.100503 -2.336523 -6.333386 2.197217 -19.834153 -1.889197 6.707141 26.570527 9.500222 -3.302548 -24.736751 0.000000 0.000000 0.000000 -10.541155 -7.524066 2.205980 -21.143334 -1.484393 -2.956117 23.409189 -5.152086 -0.956052 0.000000 0.000000 0.000000 18.478763 -3.724056 -1.986415 26.497728 6.593623 -2.970833 -18.682450 10.726354 -0.746169 0.000000 0.000000 0.000000 
